<?xml version="1.0" encoding="UTF-8"?>
<svg id="a" data-name="Ebene 1" xmlns="http://www.w3.org/2000/svg" width="1024" height="1024" xmlns:xlink="http://www.w3.org/1999/xlink" viewBox="0 0 1024 1024">
  <defs>
    <filter id="b" data-name="drop-shadow-1" filterUnits="userSpaceOnUse">
      <feOffset dx="7" dy="7"/>
      <feGaussianBlur result="c" stdDeviation="5"/>
      <feFlood flood-color="#1d1d1b" flood-opacity=".25"/>
      <feComposite in2="c" operator="in"/>
      <feComposite in="SourceGraphic"/>
    </filter>
    <filter id="d" data-name="drop-shadow-2" filterUnits="userSpaceOnUse">
      <feOffset dx="7" dy="7"/>
      <feGaussianBlur result="e" stdDeviation="5"/>
      <feFlood flood-color="#1d1d1b" flood-opacity=".25"/>
      <feComposite in2="e" operator="in"/>
      <feComposite in="SourceGraphic"/>
    </filter>
  </defs>
  <g>
    <path d="M510.32,79.38c2.72.26,5.37.79,7.81,1.4,27.53,20.39,61.19,77.42,73.33,117.54,5.01,15.22,7.81,30.5,7.95,44.51.53,0,1.06,3.18,1.59,3.18,18.09-24.06,76.1-65.27,114.45-76.3,12.09-3.48,25.51-6.01,31.45-1.37,3.48,3.56,1.2,1.59,4.87,6.38,2.35,14.33-.56,85.61-1.68,93.12-15.03,100.38-28.91,110.52-101.41,164.15-8.63,6.39-38.78,19.19-62,25.43-14.27,3.84-20.94,4.57-27.02,3.18,77.92-23.28,151.17-85.8,166.57-170.38,2.87-15.76,4.91-74.82,3.41-100.48-33.8,9.58-94.37,42.07-124.68,84.62-2.84,3.98-2.27,9.08-5.56,27.28-.59,3.25-2.36,14.9-4.77,25.43-2.05,8.95-5.09,16.6-6.77,23.28-11.55,46-38.42,100.69-81.72,130.05-32.48,22.02-77.32,25.98-126.11,8.81-34.73-12.22-57.13-38.89-87.43-57.23-16.72-10.12-38.95-18.77-60.41-23.84-13.2-3.12-29.68-.01-38.15,0-3.07,0-4.77-.13-6.36-1.59,4.57-5.5,2.53-3.31,9.85-6.19,12.77-3.65,20.86-7.75,31.44-7.89,71.18-.94,102.22,55.27,154.61,83.57,36.32,19.62,89.94,23.15,118.84.44,23.28-18.3,36.73-49.97,49.54-76.55,12.13-25.16,23.72-59.74,28.35-91.95-.53,0-4.24,4.77-4.77,4.77-15.91,25.16-35.66,54.9-44.11,75.59-1.18,2.88-3.22,4.63-5.17,5.48v-4.77c7.98-30.71,18.57-56.91,31.79-82.66,8.12-16.81,13.49-23.33,22.25-36.56,8.79-39.64-16.37-92.38-30.2-114.45-9.26-14.77-19.8-32.41-35.33-45.2-35.31,44.27-77.79,91.12-85.48,162.83-3.11,29,1.34,65.28,12.84,101.71,11.22,35.55,28.74,57.57,45.98,81.1-36.9-13.64-58.7-75.77-71.53-117.63-2.12-17.49-4.24-30.2-6.36-47.69-22.33-57.45-74.16-88.11-123.99-101.74l-1.59,1.59c3.65,42.49,2.67,78.91,11.13,109.68,13.14,47.78,40.95,82.56,79.48,112.86,12.87,10.12,27.03,19.3,42.92,27.02,7.46,3.62,16.9,5.08,23.76,9.74,1.22,2.18.05,2.53.09,2.41-85.44-4.67-143.94-71.04-165.33-136.14-7.79-23.71-9.99-48.08-9.54-77.89.17-11.04-1.65-25.4-4.77-38.15-3.46-14.16-12.22-28.3-4.77-33.38,54.1-.86,99.19,28.54,125.58,49.28,11.79,10.73,21.95,22.88,31.79,34.97,4.57-55.54,58.11-119.29,95.31-171.41Z" style="fill: #8c738c; fill-rule: evenodd;"/>
    <path d="M659.82,466.97c32.78.11,94.8,3.44,90.61,19.08-4.11,1.29-22.42-1.78-28.61-1.59-17.07.51-31.89-3.25-74.73,3.26-60.69,9.23-104.71,43.49-163.71,55.55-24.65,5.04-65.88.82-76.3-9.54,1.06-1.06,2.12-2.12,3.18-3.18,62.9,18.01,127.22-27.06,177.94-46.47,23.67-9.1,47.24-15.42,71.64-17.11Z" style="fill: #8c738c; fill-rule: evenodd;"/>
  </g>
  <text transform="translate(180.21 759.75) scale(.8 1)" style="fill: #8c738c; filter: url(#b); font-family: BookAntiqua, &apos;Book Antiqua&apos;; font-size: 130.81px;"><tspan x="0" y="0">YANA FLOW</tspan></text>
  <text transform="translate(206.43 853.41) scale(1.34 1)" style="fill: #8c738c; filter: url(#d); font-family: KigeliaLGC-Italic, &apos;Kigelia LGC&apos;; font-size: 60px; font-style: italic;"><tspan x="0" y="0" style="letter-spacing: 0em;">Mov</tspan><tspan x="107.11" y="0" style="letter-spacing: 0em;">e with b</tspan><tspan x="306.24" y="0" style="letter-spacing: 0em;">r</tspan><tspan x="326.72" y="0">eath.</tspan></text>
</svg>