<?xml version="1.0" encoding="UTF-8"?>
<svg id="a" data-name="Ebene 1" xmlns="http://www.w3.org/2000/svg" viewBox="0 0 1024 1024">
  <path d="M530.39,162.48c4.08.38,8.05,1.18,11.71,2.1,41.3,30.58,91.78,116.14,110,176.32,7.51,22.83,11.72,45.76,11.92,66.76.79,0,1.59,4.77,2.38,4.77,27.13-36.09,114.15-97.91,171.68-114.45,18.14-5.22,38.27-9.02,47.18-2.05,5.21,5.34,1.8,2.38,7.31,9.57,3.52,21.5-.84,128.41-2.52,139.68-22.55,150.57-43.36,165.78-152.12,246.23-12.95,9.58-58.16,28.79-92.99,38.15-21.41,5.76-31.41,6.86-40.54,4.77,116.88-34.92,226.76-128.71,249.85-255.57,4.3-23.65,7.37-112.22,5.12-150.72-50.7,14.37-141.56,63.1-187.02,126.93-4.26,5.98-3.4,13.61-8.34,40.91-.88,4.88-3.53,22.34-7.15,38.15-3.07,13.42-7.64,24.9-10.16,34.92-17.33,69-57.64,151.04-122.58,195.08-48.72,33.03-115.98,38.96-189.17,13.22-52.1-18.33-85.7-58.34-131.14-85.84-25.08-15.18-58.43-28.16-90.61-35.77-19.81-4.68-44.51-.02-57.23,0-4.61,0-7.16-.2-9.54-2.38,6.86-8.25,3.8-4.96,14.78-9.28,19.16-5.48,31.29-11.62,47.17-11.83,106.77-1.4,153.32,82.9,231.91,125.36,54.48,29.43,134.92,34.72,178.26.66,34.92-27.45,55.09-74.96,74.32-114.83,18.2-37.74,35.58-89.61,42.52-137.92-.79,0-6.36,7.15-7.15,7.15-23.87,37.75-53.49,82.36-66.17,113.39-1.77,4.32-4.82,6.95-7.75,8.21v-7.15c11.97-46.06,27.86-85.37,47.69-123.99,12.18-25.22,20.23-34.99,33.38-54.84,13.18-59.45-24.55-138.57-45.3-171.68-13.88-22.15-29.69-48.61-53-67.8-52.96,66.4-116.68,136.68-128.22,244.25-4.67,43.49,2.01,97.91,19.25,152.56,16.82,53.33,43.11,86.35,68.97,121.65-55.35-20.46-88.05-113.65-107.3-176.45-3.17-26.23-6.36-45.31-9.54-71.53-33.5-86.18-111.25-132.16-185.99-152.6l-2.38,2.38c5.47,63.73,4,118.37,16.69,164.53,19.71,71.67,61.42,123.83,119.22,169.3,19.3,15.18,40.54,28.96,64.38,40.54,11.19,5.44,25.34,7.61,35.64,14.62,1.83,3.27.07,3.8.14,3.61-128.16-7-215.91-106.55-247.99-204.21-11.68-35.56-14.98-72.11-14.31-116.84.25-16.56-2.48-38.1-7.15-57.23-5.19-21.24-18.33-42.44-7.15-50.07,81.15-1.29,148.78,42.8,188.37,73.92,17.69,16.09,32.93,34.31,47.69,52.46,6.86-83.31,87.17-178.94,142.96-257.11Z" style="fill: #8c738c; fill-rule: evenodd;"/>
  <path d="M754.63,743.88c49.17.17,142.21,5.16,135.91,28.61-6.16,1.94-33.63-2.66-42.92-2.38-25.6.77-47.83-4.88-112.1,4.89-91.04,13.84-157.07,65.24-245.57,83.33-36.97,7.56-98.82,1.23-114.45-14.31,1.59-1.59,3.18-3.18,4.76-4.77,94.35,27.01,190.84-40.59,266.91-69.71,35.5-13.65,70.86-23.13,107.45-25.67Z" style="fill: #8c738c; fill-rule: evenodd;"/>
</svg>